<svg id="Capa_1" data-name="Capa 1" xmlns="http://www.w3.org/2000/svg" viewBox="0 0 681.95 125.6"><defs><style>.cls-1{fill:#fff;}</style></defs><path class="cls-1" d="M261.47,213v4.38h-4.34v-13.8h6.05a5.42,5.42,0,0,1,3.89,1.29,4.52,4.52,0,0,1,1.35,3.45,4.74,4.74,0,0,1-.6,2.37,4.26,4.26,0,0,1-1.78,1.68,6,6,0,0,1-2.86.63Zm2.57-4.68c0-.85-.45-1.27-1.35-1.27h-1.22v2.53h1.22Q264,209.54,264,208.28Z" transform="translate(-146.92 -92.74)"/><path class="cls-1" d="M305.55,217.34l-2.61-5v5h-4.33v-13.8H305a6.44,6.44,0,0,1,2.87.59,4.14,4.14,0,0,1,1.78,1.62,4.5,4.5,0,0,1,.6,2.31,4.13,4.13,0,0,1-.77,2.46,4.25,4.25,0,0,1-2.22,1.54l3,5.28Zm-2.61-7.84h1.71a1.35,1.35,0,0,0,.94-.28,1.36,1.36,0,0,0,0-1.74,1.26,1.26,0,0,0-.93-.31h-1.71Z" transform="translate(-146.92 -92.74)"/><path class="cls-1" d="M351.18,204.21a6.76,6.76,0,0,1,2.56,2.53,7.47,7.47,0,0,1,0,7.29,6.79,6.79,0,0,1-2.57,2.53,7.39,7.39,0,0,1-7.14,0,6.81,6.81,0,0,1-2.58-2.53,7.4,7.4,0,0,1,0-7.29,6.81,6.81,0,0,1,2.58-2.53,7.55,7.55,0,0,1,7.15,0Zm-5.58,3.92a4,4,0,0,0,0,4.49,2.5,2.5,0,0,0,2,.83,2.47,2.47,0,0,0,2-.83,4,4,0,0,0,0-4.49,2.47,2.47,0,0,0-2-.83A2.5,2.5,0,0,0,345.6,208.13Z" transform="translate(-146.92 -92.74)"/><path class="cls-1" d="M396.92,214a6.39,6.39,0,0,1-2.51,2.49,7.7,7.7,0,0,1-3.79.9h-5.75v-13.8h5.75a7.8,7.8,0,0,1,3.79.88,6.12,6.12,0,0,1,2.51,2.43,7.6,7.6,0,0,1,0,7.1Zm-4.37-1.27a3.45,3.45,0,0,0,0-4.56,3.29,3.29,0,0,0-2.32-.8h-1v6.16h1A3.24,3.24,0,0,0,392.55,212.68Z" transform="translate(-146.92 -92.74)"/><path class="cls-1" d="M432.29,203.54v7.78a2.44,2.44,0,0,0,.42,1.51,1.59,1.59,0,0,0,1.35.56,1.68,1.68,0,0,0,1.39-.56,2.32,2.32,0,0,0,.45-1.51v-7.78h4.31v7.78a6.58,6.58,0,0,1-.82,3.36,5.33,5.33,0,0,1-2.24,2.1,7.07,7.07,0,0,1-3.18.7,6.63,6.63,0,0,1-3.11-.7,5,5,0,0,1-2.12-2.09,6.85,6.85,0,0,1-.76-3.37v-7.78Z" transform="translate(-146.92 -92.74)"/><path class="cls-1" d="M480.42,204.08a5.85,5.85,0,0,1,2.3,1.9,6.83,6.83,0,0,1,1.18,2.86h-4.56a2.51,2.51,0,0,0-.89-1.06,2.34,2.34,0,0,0-1.31-.38,2.06,2.06,0,0,0-1.73.82,4.17,4.17,0,0,0,0,4.41,2.08,2.08,0,0,0,1.73.82,2.27,2.27,0,0,0,1.31-.39,2.46,2.46,0,0,0,.89-1.06h4.56a6.88,6.88,0,0,1-1.18,2.87,5.93,5.93,0,0,1-2.3,1.9,7.34,7.34,0,0,1-3.21.67,7,7,0,0,1-3.62-.89,5.91,5.91,0,0,1-2.37-2.48,8.42,8.42,0,0,1,0-7.29,5.93,5.93,0,0,1,2.37-2.49,7.12,7.12,0,0,1,3.62-.89A7.35,7.35,0,0,1,480.42,204.08Z" transform="translate(-146.92 -92.74)"/><path class="cls-1" d="M524.12,204.08a5.85,5.85,0,0,1,2.3,1.9,7,7,0,0,1,1.18,2.86H523a2.43,2.43,0,0,0-.88-1.06,2.4,2.4,0,0,0-1.32-.38,2,2,0,0,0-1.72.82,4.12,4.12,0,0,0,0,4.41,2.07,2.07,0,0,0,1.72.82,2.33,2.33,0,0,0,1.32-.39A2.37,2.37,0,0,0,523,212h4.57a7,7,0,0,1-1.18,2.87,5.93,5.93,0,0,1-2.3,1.9,7.41,7.41,0,0,1-3.21.67,7.08,7.08,0,0,1-3.63-.89,6,6,0,0,1-2.37-2.48,8.51,8.51,0,0,1,0-7.29,6.06,6.06,0,0,1,2.37-2.49,7.18,7.18,0,0,1,3.63-.89A7.41,7.41,0,0,1,524.12,204.08Z" transform="translate(-146.92 -92.74)"/><rect class="cls-1" x="410.86" y="110.8" width="4.33" height="13.81"/><path class="cls-1" d="M603,204.21a6.76,6.76,0,0,1,2.56,2.53,7.47,7.47,0,0,1,0,7.29,6.79,6.79,0,0,1-2.57,2.53,7,7,0,0,1-3.56.92,7.1,7.1,0,0,1-3.58-.92,6.88,6.88,0,0,1-2.58-2.53,7.4,7.4,0,0,1,0-7.29,6.88,6.88,0,0,1,2.58-2.53,7.55,7.55,0,0,1,7.15,0Zm-5.58,3.92a4,4,0,0,0,0,4.49,2.5,2.5,0,0,0,2,.83,2.47,2.47,0,0,0,2-.83,4,4,0,0,0,0-4.49,2.47,2.47,0,0,0-2-.83A2.5,2.5,0,0,0,597.4,208.13Z" transform="translate(-146.92 -92.74)"/><polygon class="cls-1" points="503 124.6 498.67 124.6 494.09 117.66 494.09 124.6 489.76 124.6 489.76 110.8 494.09 110.8 498.67 117.86 498.67 110.8 503 110.8 503 124.6"/><path class="cls-1" d="M690.54,215.41a4.16,4.16,0,0,1-1.78,1.51,6.31,6.31,0,0,1-2.79.56,6.79,6.79,0,0,1-4.08-1.16,4.25,4.25,0,0,1-1.75-3.4h4.6c.07.79.42,1.19,1,1.19a.8.8,0,0,0,.54-.18.6.6,0,0,0,.21-.5.85.85,0,0,0-.5-.77,9.81,9.81,0,0,0-1.61-.66,14.42,14.42,0,0,1-2.18-.88,4.48,4.48,0,0,1-1.51-1.32,3.84,3.84,0,0,1-.64-2.28,3.77,3.77,0,0,1,.69-2.29,4.37,4.37,0,0,1,1.89-1.44,7.22,7.22,0,0,1,2.7-.48,6.2,6.2,0,0,1,3.94,1.15,4.3,4.3,0,0,1,1.6,3.31h-4.66c-.06-.73-.36-1.09-.89-1.09a.61.61,0,0,0-.45.16.67.67,0,0,0-.18.5.83.83,0,0,0,.5.73,10.28,10.28,0,0,0,1.55.66,16.85,16.85,0,0,1,2.19.92A4.51,4.51,0,0,1,690.5,211a3.7,3.7,0,0,1,.66,2.27A3.86,3.86,0,0,1,690.54,215.41Z" transform="translate(-146.92 -92.74)"/><polygon class="cls-1" points="288.02 79.72 310.88 79.72 310.88 92.85 270.89 92.85 270.89 21.98 288.02 21.98 288.02 79.72"/><polygon class="cls-1" points="110.22 92.85 154.32 92.85 154.32 79.11 127.35 79.11 127.35 63.38 151.31 63.38 151.31 50.45 127.35 50.45 127.35 35.61 154.32 35.61 154.32 21.98 110.22 21.98 110.22 92.85"/><polygon class="cls-1" points="226.94 65.89 198.27 21.98 181.13 21.98 181.13 92.85 198.27 92.85 198.27 49.35 226.94 92.85 244.08 92.85 244.08 21.98 226.94 21.98 226.94 65.89"/><path class="cls-1" d="M518.35,115.22l26,70.37H526.07l-4.42-12.93H495.09l-4.41,12.93h-18l26-70.37Zm-1.11,44.41-8.82-26.06-8.92,26.06Z" transform="translate(-146.92 -92.74)"/><rect class="cls-1" x="417.4" y="21.98" width="17.14" height="70.87"/><path class="cls-1" d="M725.34,115.22l26,70.37H733.06l-4.41-12.93H702.09l-4.41,12.93h-18l26-70.37Zm-1.1,44.41-8.82-26.06-8.92,26.06Z" transform="translate(-146.92 -92.74)"/><polygon class="cls-1" points="626.42 21.98 626.42 35.61 645.47 35.61 645.47 92.85 662.71 92.85 662.71 35.61 681.95 35.61 681.95 21.98 626.42 21.98"/><path class="cls-1" d="M649.93,156.45l14.69,28.41v.73h-18.3l-12.51-25.07h-9.19v25.07H607.48V114.72h29.27A31.57,31.57,0,0,1,651,117.63a20.1,20.1,0,0,1,8.72,8,22.79,22.79,0,0,1,2.91,11.58,20.65,20.65,0,0,1-4.26,13.13A20.08,20.08,0,0,1,649.93,156.45Zm-4.76-18.27c0-.16,0-.31,0-.46a8.66,8.66,0,0,0-2.44-6.16q-2.46-2.4-7.47-2.4H624.62V147.1h10.62a11.72,11.72,0,0,0,6.8-1.68,5.89,5.89,0,0,0,.72-.58C644.36,143.34,645.17,141.12,645.17,138.18Z" transform="translate(-146.92 -92.74)"/><polygon class="cls-1" points="607.44 35.61 612.18 35.61 612.18 21.98 602.41 21.98 607.44 35.61"/><path class="cls-1" d="M200.25,199.11a2.93,2.93,0,0,0-3.39,0q-11.48,8.26-23,0a3,3,0,0,0-4.59,3.13l3.57,13.88a3,3,0,0,0,2.86,2.21H195a3,3,0,0,0,2.86-2.21l3.57-13.85A3,3,0,0,0,200.25,199.11Zm-7.52,13.33H178l-1.28-5a22.29,22.29,0,0,0,17.25,0Z" transform="translate(-146.92 -92.74)"/><path class="cls-1" d="M187.6,199.26V162.47a2.22,2.22,0,0,0-4.43,0v36.79a2.22,2.22,0,0,0,4.43,0Z" transform="translate(-146.92 -92.74)"/><path class="cls-1" d="M201.27,161.56a2.1,2.1,0,0,0-2.56,1.51l-8.86,34.43a2.11,2.11,0,0,0,1.52,2.57,2.31,2.31,0,0,0,.52.06,2.12,2.12,0,0,0,2.05-1.58l2.5-9.75,1.39-5.4h0l5-19.28A2.1,2.1,0,0,0,201.27,161.56Z" transform="translate(-146.92 -92.74)"/><path class="cls-1" d="M178.38,187.66l-6.32-24.59a2.11,2.11,0,0,0-4.09,1.05l6.62,25.72.75,2.92h0l1.49,5.79a2.1,2.1,0,0,0,2,1.58,2.46,2.46,0,0,0,.53-.06,2.11,2.11,0,0,0,1.51-2.57l-.94-3.68-1.59-6.16Z" transform="translate(-146.92 -92.74)"/><path class="cls-1" d="M185.38,92.74a38.58,38.58,0,0,0-38.46,38.61c0,21.18,9.88,50.11,26.12,60l-2.82-9.8c-10.71-11-17.4-32.09-17.4-50.22a32.56,32.56,0,1,1,65.12,0,88.53,88.53,0,0,1-.71,10.81c-2.37.67-11.79,2-49,2a3,3,0,0,0,0,5.91c51.43,0,52.77-2.29,54.07-4.5,1.43-2.46,1.52-14.11,1.52-14.23A38.58,38.58,0,0,0,185.38,92.74Z" transform="translate(-146.92 -92.74)"/><path class="cls-1" d="M201.65,154.12a3.07,3.07,0,0,0-2.83,3,3,3,0,0,0,3.24,2.93c4.76-.46,8.56-.64,10.92-.63,0,0,0,0,0,0a68.78,68.78,0,0,1-11.12,19.66c-.86,1-.86,1-1.08,1.72l-2.69,9.92s0,.05,0,0c3.22-2.08,5.15-4.14,8.27-7.9a73.7,73.7,0,0,0,13.23-24.73,3.26,3.26,0,0,0-.59-3C218.12,154,217,152.64,201.65,154.12Z" transform="translate(-146.92 -92.74)"/></svg>